<svg xmlns="http://www.w3.org/2000/svg" viewBox="0 0 760 760" width="60" height="60" preserveAspectRatio="xMidYMid meet" style="width: 100%; height: 100%; transform: translate3d(0px, 0px, 0px);"><defs><clipPath id="__lottie_element_2"><rect width="760" height="760" x="0" y="0"></rect></clipPath></defs><g clip-path="url(#__lottie_element_2)"><g style="display: block;" transform="matrix(1,0,0,1,116.66098022460938,348.0719909667969)" opacity="1"><g opacity="1" transform="matrix(1,0,0,1,202.8979949951172,151.45399475097656)"><path fill="rgb(206,221,255)" fill-opacity="1" d=" M-39.34299850463867,-149.4040069580078 C-1.6510000228881836,-150.25 54.624000549316406,-136.31500244140625 73.25700378417969,-70.4800033569336 C91.88899993896484,-4.644999980926514 76.6969985961914,150.25100708007812 -91.88800048828125,123.43599700927734 C-91.88800048828125,123.43599700927734 -39.34299850463867,-149.4040069580078 -39.34299850463867,-149.4040069580078z"></path></g><g opacity="1" transform="matrix(1,0,0,1,123.12799835205078,138.9239959716797)"><path fill="rgb(206,221,255)" fill-opacity="1" d=" M40.428001403808594,-136.87399291992188 C99.82599639892578,-138.6739959716797 122.87799835205078,-63.694000244140625 120.71700286865234,-23.016000747680664 C118.55599975585938,17.663000106811523 119.1449966430664,138.6750030517578 -1.8669999837875366,136.51400756835938 C-122.87799835205078,134.35299682617188 -79.65899658203125,-7.188000202178955 -55.888999938964844,-55.808998107910156 C-32.11800003051758,-104.42900085449219 4.7729997634887695,-135.79400634765625 40.428001403808594,-136.87399291992188z"></path></g><g opacity="1" transform="matrix(1,0,0,1,134.3780059814453,150.23199462890625)"><path fill="rgb(255,184,9)" fill-opacity="1" d=" M14.791000366210938,-63.2599983215332 C43.62900161743164,-61.25699996948242 44.70600128173828,-27.149999618530273 44.70600128173828,-15.300999641418457 C44.70600128173828,-3.4519999027252197 43.077999114990234,65.79900360107422 -8.998000144958496,62.65999984741211 C-40.72100067138672,60.74800109863281 -44.70600128173828,29.756000518798828 -41.30500030517578,5.211999893188477 C-37.90399932861328,-19.33099937438965 -21.768999099731445,-65.79900360107422 14.791000366210938,-63.2599983215332z"></path></g></g><g style="display: block;" transform="matrix(1,0,0,1,309.4289855957031,178.46600341796875)" opacity="1"><g opacity="1" transform="matrix(1,0,0,1,153.66900634765625,229.72000122070312)"><path fill="rgb(162,0,55)" fill-opacity="1" d=" M-128.93600463867188,-228.13099670410156 C-128.93600463867188,-228.13099670410156 -58.04399871826172,-229.47000122070312 -37.909000396728516,-228.89700317382812 C-17.773000717163086,-228.322998046875 -15.595999717712402,-215.8070068359375 -15.595999717712402,-200.02499389648438 C-15.595999717712402,-184.2429962158203 -22.125999450683594,-134.17599487304688 8.892999649047852,-110.7750015258789 C39.91299819946289,-87.3740005493164 46.444000244140625,-65.80000305175781 55.69499969482422,-4.751999855041504 C64.9469985961914,56.297000885009766 91.61299896240234,60.21200180053711 121,83.55999755859375 C150.38699340820312,106.90799713134766 153.41700744628906,192.427001953125 153.41799926757812,211.96299743652344 C153.41900634765625,229.47000122070312 145.54400634765625,228.38600158691406 133.07400512695312,228.4239959716797 C100.52400207519531,228.52499389648438 45.50699996948242,228.65499877929688 29.572999954223633,228.26699829101562 C7.261000156402588,227.7220001220703 14.880000114440918,202.68899536132812 12.70300006866455,176.56700134277344 C10.526000022888184,150.44500732421875 13.29800033569336,127.46600341796875 -17.773000717163086,118.33699798583984 C-45.66299819946289,110.14199829101562 -67.54900360107422,106.7979965209961 -67.30000305175781,18.673999786376953 C-67.0719985961914,-61.96699905395508 -118.58100128173828,-53.78300094604492 -134.23300170898438,-104.24400329589844 C-146.13600158691406,-142.61900329589844 -153.1649932861328,-183.54600524902344 -153.31900024414062,-208.73699951171875 C-153.41900634765625,-225.04299926757812 -145.60400390625,-228.55499267578125 -128.93600463867188,-228.13099670410156z"></path></g><g opacity="1" transform="matrix(1,0,0,1,125.71299743652344,229.58700561523438)"><path fill="rgb(199,95,0)" fill-opacity="1" d=" M5.105999946594238,-59.874000549316406 C8.78499984741211,-120.58100128173828 -18.69300079345703,-127.875 -39.04399871826172,-141.9199981689453 C-59.775001525878906,-156.2270050048828 -59.03099822998047,-207.927001953125 -57.84000015258789,-228.66000366210938 C-59.30699920654297,-228.64199829101562 -60.766998291015625,-228.62399291992188 -62.215999603271484,-228.6060028076172 C-62.26900100708008,-228.60499572753906 -62.323001861572266,-228.60400390625 -62.375999450683594,-228.60299682617188 C-62.840999603271484,-228.59800720214844 -63.30500030517578,-228.59100341796875 -63.766998291015625,-228.5850067138672 C-63.7869987487793,-228.5850067138672 -63.80699920654297,-228.5850067138672 -63.82699966430664,-228.5850067138672 C-65.74099731445312,-228.5590057373047 -67.62999725341797,-228.53399658203125 -69.48300170898438,-228.50799560546875 C-69.552001953125,-228.5070037841797 -69.62100219726562,-228.50599670410156 -69.69100189208984,-228.5050048828125 C-71.54199981689453,-228.47900390625 -73.35600280761719,-228.4530029296875 -75.11799621582031,-228.42599487304688 C-75.13300323486328,-228.42599487304688 -75.14800262451172,-228.42599487304688 -75.16400146484375,-228.42599487304688 C-75.53500366210938,-228.4199981689453 -75.90499877929688,-228.4149932861328 -76.27200317382812,-228.40899658203125 C-76.45800018310547,-228.406005859375 -76.64299774169922,-228.4040069580078 -76.8280029296875,-228.4010009765625 C-78.02799987792969,-228.38299560546875 -79.2030029296875,-228.36500549316406 -80.34500122070312,-228.3470001220703 C-80.36299896240234,-228.3470001220703 -80.38300323486328,-228.3459930419922 -80.4020004272461,-228.3459930419922 C-80.72599792480469,-228.34100341796875 -81.0459976196289,-228.33599853515625 -81.36499786376953,-228.33099365234375 C-81.53299713134766,-228.3280029296875 -81.69999694824219,-228.3260040283203 -81.86599731445312,-228.322998046875 C-82.19300079345703,-228.3179931640625 -82.51899719238281,-228.31300354003906 -82.83999633789062,-228.30799865722656 C-82.85700225830078,-228.30799865722656 -82.875,-228.3070068359375 -82.89199829101562,-228.3070068359375 C-84.39800262451172,-228.2830047607422 -85.83599853515625,-228.25999450683594 -87.1989974975586,-228.23699951171875 C-87.37899780273438,-228.23399353027344 -87.55599975585938,-228.23199462890625 -87.73200225830078,-228.22900390625 C-88.56199645996094,-228.21499633789062 -89.36100006103516,-228.20199584960938 -90.12899780273438,-228.18899536132812 C-90.31700134277344,-228.18600463867188 -90.50700378417969,-228.1820068359375 -90.69100189208984,-228.1790008544922 C-90.90599822998047,-228.17599487304688 -91.11799621582031,-228.1719970703125 -91.3270034790039,-228.16799926757812 C-91.427001953125,-228.16700744628906 -91.5260009765625,-228.1649932861328 -91.6240005493164,-228.16299438476562 C-92.40899658203125,-228.14999389648438 -93.1500015258789,-228.13699340820312 -93.8499984741211,-228.125 C-93.97200012207031,-228.1230010986328 -94.09700012207031,-228.12100219726562 -94.21499633789062,-228.11900329589844 C-94.37000274658203,-228.11599731445312 -94.51799774169922,-228.11399841308594 -94.66799926757812,-228.11099243164062 C-94.80899810791016,-228.10899353027344 -94.95099639892578,-228.1060028076172 -95.08699798583984,-228.10400390625 C-95.27300262451172,-228.1009979248047 -95.45600128173828,-228.0970001220703 -95.63400268554688,-228.093994140625 C-95.69200134277344,-228.09300231933594 -95.74800109863281,-228.0919952392578 -95.80500030517578,-228.09100341796875 C-96.01799774169922,-228.08700561523438 -96.22599792480469,-228.08399963378906 -96.427001953125,-228.0800018310547 C-98.02100372314453,-210.36500549316406 -98.88700103759766,-172.4040069580078 -78.9489974975586,-160.4409942626953 C-54.53300094604492,-145.79100036621094 -54.744998931884766,-125.072998046875 -56.21699905395508,-109.25199890136719 C-57.68899917602539,-93.43199920654297 -52.821998596191406,-77.94200134277344 -36.9109992980957,-61.34600067138672 C-14.505999565124512,-37.9739990234375 -20.2810001373291,-7.261000156402588 -13.659000396728516,25.482999801635742 C-7.035999774932861,58.22800064086914 10.255999565124512,58.22800064086914 41.1609992980957,88.39800262451172 C66.06500244140625,112.70800018310547 65.7300033569336,196.97000122070312 64.71900177001953,228.51699829101562 C72.95099639892578,228.60899353027344 84.82599639892578,228.64999389648438 97.96499633789062,228.66000366210938 C98.88700103759766,182.3459930419922 90.90499877929688,83.6259994506836 59.18899917602539,51.60599899291992 C20.926000595092773,12.973999977111816 1.1649999618530273,5.14900016784668 5.105999946594238,-59.874000549316406z"></path></g></g></g></svg>