<?xml version="1.0" encoding="UTF-8"?>
<svg width="375px" height="667px" viewBox="0 0 375 667" version="1.1" xmlns="http://www.w3.org/2000/svg" xmlns:xlink="http://www.w3.org/1999/xlink">
    <!-- Generator: sketchtool 56.3 (101010) - https://sketch.com -->
    <title>126BD419-C448-4BDA-8CFF-92E30D02D2EC</title>
    <desc>Created with sketchtool.</desc>
    <defs>
        <linearGradient x1="49.6382173%" y1="15.1748348%" x2="50%" y2="100%" id="linearGradient-1">
            <stop stop-color="#FFFFFF" offset="0%"></stop>
            <stop stop-color="#FFFFFF" stop-opacity="0.645241477" offset="54.1516538%"></stop>
            <stop stop-color="#FFFFFF" stop-opacity="0" offset="100%"></stop>
        </linearGradient>
    </defs>
    <g id="1.0-REGISTRO-COMERCIO" stroke="none" stroke-width="1" fill="none" fill-rule="evenodd">
        <g id="SPLASH">
            <g id="background_city" transform="translate(-135.000000, 0.000000)">
                <g id="Fondo-Mapa" opacity="0.338579799" transform="translate(349.000000, 418.500000) scale(-1, -1) translate(-349.000000, -418.500000) translate(0.000000, 92.000000)">
                    <g id="Fondo" transform="translate(43.000000, 21.000000)" fill="#C8D1D5">
                        <polygon id="Fill-1" points="0 604 602.92764 604 602.92764 0 0 0"></polygon>
                    </g>
                    <g id="Cesped" transform="translate(25.000000, 8.000000)">
                        <path d="M278.153669,174.425209 C278.153669,203.220623 254.835412,226.565286 226.069876,226.565286 C197.305547,226.565286 173.986084,203.220623 173.986084,174.425209 C173.986084,145.628589 197.305547,122.285133 226.069876,122.285133 C254.835412,122.285133 278.153669,145.628589 278.153669,174.425209" id="Fill-4" fill="#65818F"></path>
                        <path d="M226.071082,202.300695 C210.691597,202.300695 198.223275,189.821315 198.223275,174.425209 C198.223275,159.029104 210.691597,146.547309 226.071082,146.547309 C241.449362,146.547309 253.917683,159.029104 253.917683,174.425209 C253.917683,189.821315 241.449362,202.300695 226.071082,202.300695" id="Fill-6" fill="#34586C"></path>
                        <polyline id="Fill-7" fill="#65818F" points="495.710741 256.634351 487.682729 294.73769 341.590278 272.871913 354.567511 235.853895 495.710741 256.634351"></polyline>
                        <polyline id="Fill-8" fill="#65818F" points="529.20119 85.9576645 493.520735 122.285133 450.779441 129.302898 425.384537 155.094664 501.773054 174.425209 563.810761 141.54445 529.20119 85.9576645"></polyline>
                        <polyline id="Fill-9" fill="#65818F" points="524.223027 348.994082 487.682729 430.603219 514.622456 472.433349 588.64731 468.669133 607.17915 446.788868 588.64731 403.773215 556.277189 394.006533 524.223027 348.994082"></polyline>
                        <polyline id="Fill-11" fill="#65818F" points="499.897801 633.46408 482.388607 589.127691 419.535677 570.727939 355.698692 485.779538 329.464447 518.010795 406.370317 633.46408 499.897801 633.46408"></polyline>
                        <polyline id="Fill-14" fill="#65818F" points="232.683308 337.847509 209.325255 385.942079 241.870239 434.012503 278.153669 425.038987 232.683308 337.847509"></polyline>
                    </g>
                    <g id="Casas" transform="translate(43.000000, 26.000000)" fill="#95A9B2">
                        <path d="M130.940244,398.391578 L116.245134,377.836314 L146.234736,366.91297 L158.254938,382.793014 L150.408702,387.273735 C148.427244,385.803517 143.774496,384.773036 138.349908,384.773036 C131.12838,384.773036 125.272044,386.600842 125.272044,388.859927 C125.272044,391.117805 131.12838,392.946819 138.349908,392.946819 C139.109688,392.946819 139.85379,392.92749 140.578596,392.887624 L133.018182,397.206464 C133.001298,397.21492 132.984414,397.224585 132.96753,397.234249 L130.940244,398.391578" id="Fill-17"></path>
                        <polyline id="Fill-18" points="166.766886 377.930543 160.459506 369.279574 179.049996 357.246016 186.31494 366.766794 166.766886 377.930543"></polyline>
                        <polyline id="Fill-24" points="134.724672 527.775578 127.676808 517.821104 168.993162 493.148747 174.036654 504.357195 134.724672 527.775578"></polyline>
                        <path d="M131.464854,338.29869 C122.974614,298.703078 147.028284,293.290937 160.818894,293.290937 C166.008312,293.290937 169.746912,294.05806 169.746912,294.05806 L160.871958,327.455078 L160.870752,327.456286 L131.464854,338.29869" id="Fill-30"></path>
                        <polyline id="Fill-31" points="178.395138 261.516353 158.321268 256.388108 162.19494 240.962297 182.007108 247.925597 178.395138 261.516353"></polyline>
                        <polyline id="Fill-39" points="141.17436 85.4792128 100.84572 75.0705055 113.227722 62.9475509 127.891476 56.7924484 148.338 68.2231805 141.17436 85.4792128"></polyline>
                        <polyline id="Fill-41" points="197.20512 72.1868491 186.697242 62.96688 179.836308 42.5275906 197.20512 31.3529687 208.448658 69.5991691 197.20512 72.1868491"></polyline>
                        <polyline id="Fill-42" points="266.101488 55.8525721 249.385122 51.7693049 260.534592 26.2657976 278.581176 30.2487953 266.101488 55.8525721"></polyline>
                        <polyline id="Fill-43" points="319.116042 61.007395 310.313448 53.8979193 325.777986 37.9973385 333.52533 44.1681459 319.116042 61.007395"></polyline>
                        <polyline id="Fill-46" points="315.643968 116.687213 312.598818 100.181391 320.478822 97.2204182 340.690176 114.1394 315.643968 116.687213"></polyline>
                        <polyline id="Fill-47" points="363.383478 90.3936303 352.050696 78.9471933 374.715054 55.8525721 393.034194 71.4402635 363.383478 90.3936303"></polyline>
                        <polyline id="Fill-48" points="380.057634 110.134657 372.543048 100.27562 383.196852 88.8243509 403.818246 80.6155341 432.267786 104.822785 380.057634 110.134657"></polyline>
                        <polyline id="Fill-49" points="219.434112 302.436006 208.448658 282.136852 213.440292 267.126617 231.951186 276.647395 219.434112 302.436006"></polyline>
                        <polyline id="Fill-50" points="278.637858 369.054873 262.807902 351.292661 276.221034 334.494486 291.798936 360.841224 291.774816 361.888618 278.637858 369.054873"></polyline>
                        <polyline id="Fill-51" points="195.092208 501.189642 193.450842 498.993376 193.450842 477.191387 221.555466 462.966395 252.097416 475.70788 232.903926 496.582074 195.092208 501.189642"></polyline>
                        <polyline id="Fill-52" points="281.798784 598.989933 236.220426 598.989933 232.16103 579.79012 264.261132 565.097607 281.798784 598.989933"></polyline>
                        <polyline id="Fill-53" points="239.055732 559.018612 219.885156 554.038959 235.33281 509.188255 258.202188 553.387811 239.055732 559.018612"></polyline>
                        <polyline id="Fill-54" points="337.669146 462.536323 319.791402 443.955041 322.931826 430.685631 357.07248 438.681828 337.669146 462.536323"></polyline>
                        <polyline id="Fill-55" points="366.784398 282.136852 347.325588 282.136852 340.106472 267.386352 362.78892 270.783437 366.784398 282.136852"></polyline>
                        <polyline id="Fill-56" points="379.867086 319.313913 358.225416 317.033082 347.325588 291.834008 370.197378 291.834008 379.867086 319.313913"></polyline>
                        <polyline id="Fill-57" points="370.620684 369.054873 347.325588 365.046506 347.325588 347.002814 370.620684 352.875229 370.620684 369.054873"></polyline>
                        <polyline id="Fill-58" points="397.068264 375.931192 379.762164 370.927377 379.762164 355.179013 398.216376 359.83128 397.068264 375.931192"></polyline>
                        <polyline id="Fill-59" points="434.525418 475.628148 411.466698 473.430674 403.478154 452.853665 428.508684 445.039886 434.525418 475.628148"></polyline>
                        <polyline id="Fill-60" points="439.230024 499.544255 418.986108 496.998857 414.129546 480.290079 435.961764 482.932122 439.230024 499.544255"></polyline>
                        <polyline id="Fill-61" points="444.544866 526.566303 417.054096 517.522711 420.879528 505.898688 440.47944 505.898688 444.544866 526.566303"></polyline>
                        <polyline id="Fill-62" points="487.008126 463.061833 472.550598 450.499142 467.525196 438.316992 471.486906 433.796404 488.627784 460.430662 487.008126 463.061833"></polyline>
                        <polyline id="Fill-63" points="471.511026 488.237954 460.454418 473.080334 470.072268 461.093891 483.470928 468.808608 471.511026 488.237954"></polyline>
                        <polyline id="Fill-64" points="450.951138 521.639804 445.373388 493.28405 460.454418 484.823956 468.081162 493.811976 450.951138 521.639804"></polyline>
                        <polyline id="Fill-65" points="508.788486 545.43148 502.098804 537.378504 524.208402 518.920445 529.822332 529.32432 508.788486 545.43148"></polyline>
                        <polyline id="Fill-66" points="511.592436 522.009473 496.249704 500.019025 504.510804 487.393515 522.600804 513.21716 511.592436 522.009473"></polyline>
                        <polyline id="Fill-71" points="459.113346 388.836974 447.339168 370.54442 457.250076 363.687431 470.072268 382.391935 459.113346 388.836974"></polyline>
                        <polyline id="Fill-72" points="426.29688 333.265882 401.03721 330.888405 394.261902 312.576522 422.95626 314.22795 426.29688 333.265882"></polyline>
                        <path d="M436.10166,333.265882 L432.51984,333.265882 L429.939,314.630237 L441.512982,315.295882 C440.191206,317.197379 439.06842,319.282504 438.185628,321.533133 C436.673304,325.389283 436.008798,329.368657 436.10166,333.265882" id="Fill-73"></path>
                        <path d="M493.254,319.353779 C490.067748,312.795183 484.511706,307.370961 477.199728,304.494553 C473.587758,303.072657 469.867248,302.398556 466.208244,302.398556 C465.496704,302.398556 464.789988,302.423925 464.084478,302.474664 L461.188872,298.993014 L470.446128,283.134716 L495.754038,316.940061 L493.254,319.353779" id="Fill-74"></path>
                        <polyline id="Fill-77" points="496.212318 268.375759 478.339398 254.896145 481.12767 241.649687 512.21232 246.030139 515.183904 263.977186 496.212318 268.375759"></polyline>
                        <polyline id="Fill-78" points="521.716806 286.766166 502.435278 283.407739 498.3795 274.852207 517.531986 268.375759 521.716806 286.766166"></polyline>
                    </g>
                    <g id="Lineas" fill="#FFFFFE">
                        <polygon id="Fill-167" points="247.73573 129.984177 254.97549 129.984177 254.97549 97.4242388 247.73573 97.4242388"></polygon>
                        <polyline id="Fill-168" points="228.712054 135.084115 212.439487 106.885379 206.169855 110.506637 222.442422 138.705373"></polyline>
                        <polyline id="Fill-169" points="208.515537 152.636353 180.329945 136.356384 176.710065 142.628403 204.895657 158.908372"></polyline>
                        <polygon id="Fill-170" points="167.252525 185.183013 199.798866 185.183013 199.798866 177.940497 167.252525 177.940497"></polygon>
                        <polyline id="Fill-171" points="204.895657 204.213931 176.710065 220.492693 180.329945 226.764712 208.515537 210.48595"></polyline>
                        <polyline id="Fill-172" points="222.443628 224.418136 206.169855 252.614458 212.439487 256.235716 228.71326 228.039394"></polyline>
                        <polyline id="Fill-173" points="247.736936 233.138126 247.73573 265.698064 254.97549 265.698064 254.976696 233.138126"></polyline>
                        <polyline id="Fill-174" points="274.000372 228.039394 290.274146 256.236924 296.543778 252.615666 280.271211 224.418136"></polyline>
                        <polyline id="Fill-175" points="294.196889 210.48595 322.383687 226.765919 326.004774 220.4939 297.816769 204.213931"></polyline>
                        <polygon id="Fill-176" points="302.914766 185.183013 335.462314 185.183013 335.462314 177.940497 302.914766 177.940497"></polygon>
                        <polyline id="Fill-177" points="297.817975 158.908372 326.004774 142.628403 322.383687 136.356384 294.198095 152.636353"></polyline>
                        <polyline id="Fill-178" points="280.272417 138.704166 296.544984 110.506637 290.275352 106.885379 274.001579 135.082908"></polyline>
                        <path d="M302.270428,327.03976 L330.680452,327.03976 C332.013775,327.03976 333.093706,325.959418 333.093706,324.625588 C333.093706,323.292965 332.013775,322.211416 330.680452,322.211416 L302.270428,322.211416 C300.937105,322.211416 299.857174,323.292965 299.857174,324.625588 C299.857174,325.959418 300.937105,327.03976 302.270428,327.03976" id="Fill-179"></path>
                        <path d="M314.639558,347.930798 L338.39321,347.930798 C339.725326,347.930798 340.806463,346.849249 340.806463,345.516626 C340.806463,344.182796 339.725326,343.102454 338.39321,343.102454 L314.639558,343.102454 C313.306235,343.102454 312.226304,344.182796 312.226304,345.516626 C312.226304,346.849249 313.306235,347.930798 314.639558,347.930798" id="Fill-180"></path>
                        <path d="M241.241665,402.249668 L221.845142,416.735908 C220.777277,417.533791 220.557671,419.04627 221.355251,420.114541 C222.152831,421.182812 223.664735,421.402502 224.732599,420.604618 L244.129123,406.118379 C245.196987,405.320495 245.416593,403.808016 244.619013,402.739745 C243.821433,401.671474 242.30953,401.451784 241.241665,402.249668" id="Fill-182"></path>
                        <path d="M253.900385,418.428242 L231.73948,431.816033 C230.599218,432.505279 230.232403,433.988788 230.921387,435.130691 C231.610371,436.271387 233.093315,436.638342 234.234784,435.949095 L256.395689,422.561305 C257.537158,421.872058 257.902766,420.38855 257.213782,419.246646 C256.524798,418.10595 255.041854,417.738996 253.900385,418.428242" id="Fill-183"></path>
                        <path d="M250.55079,364.467876 L233.880036,323.711824 C233.375666,322.476975 231.966326,321.88671 230.731947,322.391272 C229.498774,322.895834 228.907527,324.305711 229.413104,325.54056 L246.083858,366.296612 C246.588228,367.531461 247.997568,368.121726 249.23074,367.617164 C250.463913,367.112602 251.05516,365.702725 250.55079,364.467876" id="Fill-184"></path>
                        <path d="M427.62687,427.398098 L460.203377,416.315842 C461.465508,415.886119 462.140013,414.514869 461.71166,413.253464 C461.282101,411.990852 459.911373,411.314884 458.649242,411.744607 L426.072735,422.826863 C424.810604,423.255379 424.1361,424.626629 424.565659,425.889241 C424.994011,427.151853 426.364739,427.826614 427.62687,427.398098" id="Fill-191"></path>
                        <path d="M449.510251,440.523951 L482.086758,429.441695 C483.348889,429.013179 484.023394,427.640722 483.593834,426.379318 C483.165482,425.116706 481.794754,424.440737 480.532623,424.87046 L447.956116,435.952717 C446.693985,436.381232 446.019481,437.752482 446.447833,439.015094 C446.877392,440.277706 448.24812,440.952467 449.510251,440.523951" id="Fill-192"></path>
                        <path d="M497.380751,228.950744 L493.357857,201.92771 C493.161177,200.609572 491.934038,199.699429 490.615195,199.894977 C489.297559,200.091732 488.387762,201.320546 488.584442,202.638684 L492.607336,229.661718 C492.802809,230.979856 494.031155,231.889999 495.348791,231.694451 C496.667634,231.497696 497.577431,230.268882 497.380751,228.950744" id="Fill-193"></path>
                        <path d="M473.716389,223.144661 L469.693495,196.121626 C469.496815,194.803488 468.268469,193.893345 466.950833,194.0901 C465.63199,194.286855 464.7234,195.514462 464.918874,196.833807 L468.941767,223.855634 C469.138447,225.174979 470.366793,226.085122 471.684429,225.888367 C473.003272,225.691612 473.911862,224.464006 473.716389,223.144661" id="Fill-194"></path>
                        <path d="M463.347846,88.2515922 L453.090313,54.7211571 C452.699366,53.4464743 451.350357,52.7294652 450.076159,53.119354 C448.801962,53.5092428 448.084019,54.859972 448.474966,56.1346548 L458.732499,89.6638829 C459.122239,90.9385657 460.471248,91.6567819 461.745446,91.265686 C463.02085,90.8757972 463.737586,89.526275 463.347846,88.2515922" id="Fill-195"></path>
                        <path d="M566.671286,271.062354 L578.070288,256.812704 C578.904067,255.770988 578.735139,254.252474 577.69382,253.418378 C576.653708,252.585488 575.134565,252.75448 574.301993,253.794989 L562.902991,268.045846 C562.070419,269.086354 562.239346,270.606075 563.279458,271.438965 C564.319571,272.271854 565.838714,272.102862 566.671286,271.062354" id="Fill-196"></path>
                        <path d="M500.847389,575.698271 L524.584148,544.178841 C525.386555,543.114191 525.172982,541.600505 524.108737,540.797793 C523.044493,539.996288 521.531383,540.208735 520.728976,541.273385 L496.992217,572.792815 C496.191017,573.857465 496.403383,575.371151 497.467628,576.172656 C498.531872,576.975368 500.044982,576.762921 500.847389,575.698271" id="Fill-198"></path>
                        <path d="M506.012958,589.812728 L529.749717,558.294505 C530.552124,557.228648 530.338551,555.714962 529.274306,554.913457 C528.210061,554.110745 526.696952,554.323192 525.894545,555.389049 L502.158992,586.907272 C501.356585,587.971921 501.568952,589.485607 502.633196,590.28832 C503.698648,591.089825 505.211757,590.877377 506.012958,589.812728" id="Fill-199"></path>
                        <path d="M424.767165,454.398198 L408.489772,482.240844 C407.817681,483.392404 408.205008,484.871084 409.354923,485.544638 C410.506045,486.216985 411.984163,485.829511 412.656254,484.679158 L428.933647,456.835305 C429.605738,455.684952 429.218411,454.206271 428.068496,453.532717 C426.917374,452.86037 425.439256,453.247845 424.767165,454.398198" id="Fill-200"></path>
                        <path d="M437.810799,460.338268 L421.534613,488.180914 C420.861315,489.332474 421.248642,490.811155 422.399764,491.483501 C423.549679,492.157055 425.027797,491.769581 425.701094,490.619228 L441.977281,462.775375 C442.650579,461.625022 442.263252,460.146342 441.11213,459.472788 C439.962215,458.800441 438.484097,459.186708 437.810799,460.338268" id="Fill-201"></path>
                        <path d="M403.961302,247.985284 L415.614902,230.653943 C416.358184,229.547045 416.064974,228.046637 414.959704,227.303072 C413.853227,226.5583 412.35339,226.852829 411.610108,227.95852 L399.956508,245.291068 C399.212019,246.397966 399.50523,247.897166 400.611706,248.641938 C401.718183,249.385503 403.216813,249.092181 403.961302,247.985284" id="Fill-202"></path>
                        <path d="M423.026003,251.116465 L434.679603,233.783917 C435.422885,232.678226 435.129675,231.177818 434.023198,230.434253 C432.917928,229.689481 431.418091,229.982803 430.674809,231.089701 L419.021209,248.422249 C418.276721,249.52794 418.569931,251.028347 419.676407,251.77312 C420.781677,252.516684 422.281514,252.223363 423.026003,251.116465" id="Fill-203"></path>
                        <path d="M442.089498,254.247646 L453.744304,236.915098 C454.487586,235.809407 454.194376,234.308999 453.087899,233.564227 C451.982629,232.820662 450.482793,233.113984 449.73951,234.220882 L438.084704,251.55343 C437.341422,252.659121 437.634632,254.159529 438.741109,254.903094 C439.846379,255.647866 441.346216,255.354544 442.089498,254.247646" id="Fill-204"></path>
                        <path d="M250.13571,565.518915 L229.673735,545.885661 C228.710847,544.96224 227.183258,544.994831 226.261395,545.956879 C225.338326,546.918926 225.370905,548.447097 226.332586,549.370518 L246.794561,569.002565 C247.757449,569.925986 249.285038,569.894601 250.206901,568.931347 C251.12997,567.969299 251.097391,566.441128 250.13571,565.518915" id="Fill-205"></path>
                        <path d="M235.190432,571.623149 L214.728458,551.989895 C213.766776,551.067681 212.239187,551.099065 211.316117,552.06232 C210.394255,553.024367 210.425627,554.552538 211.387308,555.474752 L231.85049,575.108006 C232.812171,576.031427 234.339761,575.998835 235.261623,575.036788 C236.184693,574.07474 236.15332,572.546569 235.190432,571.623149" id="Fill-206"></path>
                        <polyline id="Fill-163" points="223.025222 100.923581 173.484752 44.1398412 168.029593 48.9030025 217.570063 105.686743"></polyline>
                        <polyline id="Fill-165" points="234.993752 9.8706694 288.485925 82.1775354 294.305485 77.8694455 240.813313 5.56137235"></polyline>
                        <polyline id="Fill-150" points="364.628893 204.315326 407.44966 141.124374 341.717466 86.1790255 337.075573 91.7364495 397.782167 142.482345 358.636785 200.251067 364.6301 204.315326 364.628893 204.315326"></polyline>
                        <polyline id="Fill-151" points="457.8951 218.577047 390.772873 160.059932 386.01635 165.519582 453.138578 224.037904 457.8951 218.577047"></polyline>
                        <polyline id="Fill-152" points="424.53308 194.591041 484.431233 133.796154 408.360663 69.1530774 403.672918 74.6730817 473.802059 134.266918 419.377164 189.506795 424.53308 194.591041"></polyline>
                        <polyline id="Fill-153" points="530.833268 235.834756 530.833268 179.297261 451.668906 159.278947 449.895165 166.300566 523.593508 184.936767 523.593508 235.834756 530.833268 235.834756"></polyline>
                        <polyline id="Fill-154" points="587.592985 146.040835 525.519284 178.915822 528.907492 185.316999 590.979986 152.442012"></polyline>
                        <polyline id="Fill-156" points="473.66209 0.763205473 363.367968 108.519773 368.427354 113.700587 478.720269 5.94401862"></polyline>
                        <polyline id="Fill-157" points="445.208627 106.141814 501.186451 61.7222559 551.990259 96.2268095 626.172459 215.288945 632.316602 211.458861 557.323549 91.0954869 500.853422 52.7415361 440.709117 100.46851 445.208627 106.141814"></polyline>
                        <polyline id="Fill-160" points="264.408897 10.0638032 299.28644 51.0600652 278.626579 101.772163 285.330596 104.506212 307.650776 49.7177856 269.921974 5.36944568 264.408897 10.0638032"></polyline>
                        <polyline id="Fill-141" points="386.875469 206.934703 362.467825 279.23674 369.327497 281.553138 393.733934 209.251101 386.875469 206.934703"></polyline>
                        <polyline id="Fill-142" points="377.909026 246.910977 592.493096 277.109855 620.508554 324.613518 626.7444 320.934319 596.955202 270.423805 378.916559 239.738472 377.909026 246.910977"></polyline>
                        <polyline id="Fill-143" points="551.127521 268.933054 564.191668 326.250326 571.250434 324.640073 558.186287 267.322801"></polyline>
                        <polyline id="Fill-118" points="402.60264 287.599432 436.084117 382.616414 442.912417 380.209485 409.430941 285.191296 402.60264 287.599432"></polyline>
                        <polyline id="Fill-119" points="538.228683 385.997462 494.116825 334.377636 422.965672 330.289236 422.549386 337.519681 490.620021 341.431847 532.725258 390.703891 538.228683 385.997462"></polyline>
                        <polyline id="Fill-120" points="495.493586 339.733477 516.535949 303.734551 524.873739 264.185585 517.789634 262.691212 509.694376 301.091033 489.24326 336.077213 495.493586 339.733477"></polyline>
                        <polyline id="Fill-122" points="334.020395 200.38264 545.271762 243.188324 667.042111 205.452401 664.899142 198.533384 544.896501 235.723704 335.457487 193.284974 334.020395 200.38264"></polyline>
                        <polyline id="Fill-123" points="674.046578 283.259958 578.142686 227.801598 561.753076 164.767567 554.746195 166.590267 571.897186 232.55631 670.423079 289.53077 674.046578 283.259958"></polyline>
                        <polygon id="Fill-124" points="42.871037 246.945983 192.846283 246.945983 192.846283 239.703467 42.871037 239.703467"></polygon>
                        <polyline id="Fill-125" points="329.765829 152.843972 520.621586 133.454549 591.845138 60.9907618 678.992541 60.9907618 678.992541 53.7482458 588.810472 53.7482458 517.291297 126.512597 329.033407 145.638875 329.765829 152.843972"></polyline>
                        <polyline id="Fill-126" points="311.631437 122.659579 425.349966 5.88004306 420.165091 0.827181031 306.445356 117.60551 311.631437 122.659579"></polyline>
                        <polyline id="Fill-127" points="254.840347 96.444085 241.018439 47.2336026 168.664279 0.314169478 164.727056 6.39184753 234.787419 51.8241507 247.870872 98.4031855 254.840347 96.444085"></polyline>
                        <polyline id="Fill-128" points="200.146375 111.862195 101.679607 86.4820041 14.8869517 165.334898 19.7544836 170.695567 103.656061 94.4704993 198.340054 118.875364 200.146375 111.862195"></polyline>
                        <polyline id="Fill-132" points="218.281973 298.93397 183.80503 288.973096 122.417899 335.007735 126.760548 340.802955 185.261428 296.931414 216.27294 305.891614 218.281973 298.93397"></polyline>
                        <polyline id="Fill-102" points="152.934694 543.827579 217.354077 505.967326 213.687139 499.723071 149.267755 537.582116"></polyline>
                        <polyline id="Fill-104" points="200.87759 355.430423 269.176279 444.817556 274.928268 440.418935 206.62958 351.033009 200.87759 355.430423"></polyline>
                        <polyline id="Fill-105" points="280.262764 291.369162 231.83601 391.012905 148.540159 438.522603 152.126254 444.813935 237.367187 396.194925 286.773722 294.535348 280.262764 291.369162"></polyline>
                        <polyline id="Fill-106" points="307.913821 432.266276 262.522939 341.202501 256.043354 344.43387 301.434235 435.498852 307.913821 432.266276"></polyline>
                        <polyline id="Fill-107" points="372.201682 365.346635 371.486152 437.91906 378.725912 437.990278 379.441442 365.417853"></polyline>
                        <polyline id="Fill-108" points="292.710325 311.556468 339.710846 307.466861 339.0834 300.250901 292.082879 304.341715"></polyline>
                        <polyline id="Fill-109" points="373.97301 397.910194 468.216584 453.898464 487.574496 552.180614 409.724151 526.60729 407.465346 533.48768 497.069441 562.92368 474.693756 449.323608 377.670114 391.684044 373.97301 397.910194"></polyline>
                        <polyline id="Fill-110" points="412.309952 449.323608 353.088716 522.033641 277.584053 522.033641 277.584053 529.276157 356.527602 529.276157 417.921972 453.898464 412.309952 449.323608"></polyline>
                        <polyline id="Fill-111" points="508.834051 593.286721 447.100618 575.2263 383.949399 491.250534 378.164831 495.6057 442.760382 581.503148 506.802091 600.238329 508.834051 593.286721"></polyline>
                        <polyline id="Fill-113" points="333.933518 459.104626 274.408212 523.758567 232.928007 644.036238 239.771994 646.398505 280.758688 527.551231 339.258361 464.011431 333.933518 459.104626"></polyline>
                        <polyline id="Fill-114" points="365.408374 542.714646 339.996817 571.871808 377.953671 635.115873 384.160559 631.388391 348.913788 572.660035 370.86474 547.474186 365.408374 542.714646"></polyline>
                        <polyline id="Fill-115" points="587.904295 554.598408 511.611705 608.707245 515.799906 614.614724 592.09129 560.505886"></polyline>
                        <polyline id="Fill-116" points="614.053101 635.188298 554.258718 581.902693 549.443071 587.310438 609.237454 640.596043"></polyline>
                        <path d="M336.014949,182.117014 L332.395069,182.117014 C332.393862,204.514495 323.330889,224.759742 308.659516,239.442736 C293.983316,254.118488 273.745774,263.186118 251.35561,263.187325 C228.965445,263.186118 208.72911,254.118488 194.051703,239.442736 C179.38033,224.759742 170.317357,204.514495 170.31615,182.117014 C170.317357,159.718326 179.38033,139.47308 194.051703,124.791293 C208.72911,110.114334 228.965445,101.047911 251.35561,101.045497 C273.745774,101.047911 293.983316,110.114334 308.659516,124.791293 C323.330889,139.47308 332.393862,159.718326 332.395069,182.117014 L339.634829,182.117014 C339.637242,157.74112 329.748936,135.639375 313.779233,119.669627 C297.815562,103.693844 275.722228,93.8029808 251.35561,93.8029808 C226.990198,93.8029808 204.896864,103.693844 188.933193,119.669627 C172.962283,135.639375 163.073977,157.74112 163.07639,182.117014 C163.073977,206.491702 172.962283,228.593447 188.933193,244.563195 C204.896864,260.538978 226.988991,270.432255 251.35561,270.429841 C275.722228,270.432255 297.815562,260.538978 313.779233,244.563195 C329.748936,228.593447 339.637242,206.491702 339.634829,182.117014 L336.014949,182.117014" id="Fill-84"></path>
                        <polyline id="Fill-86" points="302.628796 248.861628 373.47588 368.526099 481.372435 395.689156 587.661763 560.609696 677.898131 589.232119 680.086951 582.328794 592.333822 554.494598 485.908144 389.362818 378.167244 362.239596 308.857403 245.170359 302.628796 248.861628"></polyline>
                        <polyline id="Fill-87" points="264.050529 267.176744 334.749197 386.590142 332.089792 498.920358 428.771959 639.939388 434.742348 635.843745 339.38385 496.753639 342.036016 384.68536 270.279135 263.485475 264.050529 267.176744"></polyline>
                        <polyline id="Fill-88" points="532.58891 649.592455 496.355118 557.908237 542.153839 483.603644 617.174644 479.791666 616.80783 472.558807 537.987357 476.563918 488.288819 557.196057 525.855933 652.255287 532.58891 649.592455"></polyline>
                        <polyline id="Fill-89" points="547.909448 351.750018 510.47265 435.303304 442.434593 457.109313 337.585977 421.321627 172.595468 465.503389 113.050856 385.536355 107.244569 389.862552 169.72249 473.769514 337.331378 428.886435 442.362195 464.738097 515.757674 441.214405 554.515729 354.713414 547.909448 351.750018"></polyline>
                        <polyline id="Fill-90" points="321.045538 277.347651 511.110955 305.774526 585.608085 405.150296 677.840213 436.128951 680.144869 429.263046 590.048471 399.0014 515.120576 299.051057 322.115816 270.184802 321.045538 277.347651"></polyline>
                        <polyline id="Fill-93" points="697.250009 319.153868 530.8755 322.581992 531.023915 329.823301 697.398424 326.393969"></polyline>
                        <polyline id="Fill-95" points="224.151005 262.506528 200.738828 350.482578 107.771865 384.715537 0.135940929 549.595036 6.19803322 553.555485 112.52356 390.68337 206.768342 355.980855 231.147026 264.370269 224.151005 262.506528"></polyline>
                        <polyline id="Fill-99" points="184.508493 467.456454 234.707782 534.519739 275.525548 529.553787 332.522971 639.557949 338.950671 636.225185 279.641352 521.757219 237.992219 526.824566 190.303921 463.114566 184.508493 467.456454"></polyline>
                        <polyline id="Fill-100" points="264.494567 555.955172 195.919561 587.287504 186.435476 644.626503 193.578706 645.809448 202.432932 592.273976 267.501481 562.543448 264.494567 555.955172"></polyline>
                        <path d="M251.35561,134.812521 C225.281614,134.812521 204.069118,156.033093 204.069118,182.117014 C204.069118,208.200936 225.281614,229.421508 251.35561,229.421508 C277.429605,229.421508 298.642101,208.200936 298.642101,182.117014 C298.642101,156.033093 277.429605,134.812521 251.35561,134.812521 M251.35561,239.078196 C219.959184,239.078196 194.416105,213.525392 194.416105,182.117014 C194.416105,150.708636 219.959184,125.155833 251.35561,125.155833 C282.752035,125.155833 308.295115,150.708636 308.295115,182.117014 C308.295115,213.525392 282.752035,239.078196 251.35561,239.078196" id="Fill-5"></path>
                    </g>
                    <g id="Iconos" transform="translate(287.500000, 333.500000) scale(1, -1) translate(-287.500000, -333.500000) translate(137.000000, 78.000000)">
                        <g id="Icono" transform="translate(148.266396, 230.905520)">
                            <path d="M17.4969707,53.7597466 C10.266129,53.7597466 4.40442652,51.9334159 4.40442652,49.6776441 C4.40442652,47.4242849 10.266129,45.5967478 17.4969707,45.5967478 C24.7290197,45.5967478 30.5919296,47.4242849 30.5919296,49.6776441 C30.5919296,51.9334159 24.7290197,53.7597466 17.4969707,53.7597466" id="Fill-260" fill="#95A9B2"></path>
                            <path d="M34.9963561,17.4828346 C34.9963561,27.1392268 27.1618375,34.9668755 17.4981781,34.9668755 C7.83451855,34.9668755 0,27.1392268 0,17.4828346 C0,7.82644249 7.83451855,-1.77635684e-15 17.4981781,-1.77635684e-15 C27.1618375,-1.77635684e-15 34.9963561,7.82644249 34.9963561,17.4828346" id="Fill-278" fill="#34586C"></path>
                            <polyline id="Fill-279" fill="#34586C" points="17.4981781 48.3688139 3.58342596 28.0487732 31.4105154 28.0487732 17.4981781 48.3688139"></polyline>
                        </g>
                        <g id="Icono" transform="translate(186.419445, 0.000000)">
                            <path d="M17.4969707,52.4509165 C10.2673364,52.4509165 4.40442652,50.6233794 4.40442652,48.3688139 C4.40442652,46.1142484 10.2673364,44.2879176 17.4969707,44.2879176 C24.7278124,44.2879176 30.5907222,46.1142484 30.5907222,48.3688139 C30.5907222,50.6233794 24.7278124,52.4509165 17.4969707,52.4509165" id="Fill-266" fill="#95A9B2"></path>
                            <path d="M34.9963561,17.4840409 C34.9963561,27.1392268 27.1618375,34.9668755 17.4981781,34.9668755 C7.83451855,34.9668755 0,27.1392268 0,17.4840409 C0,7.82764879 7.83451855,1.77635684e-15 17.4981781,1.77635684e-15 C27.1618375,1.77635684e-15 34.9963561,7.82764879 34.9963561,17.4840409" id="Fill-268" fill="#34586C"></path>
                            <polyline id="Fill-269" fill="#34586C" points="17.4981781 48.3688139 3.58463331 28.0499795 31.4117228 28.0499795 17.4981781 48.3688139"></polyline>
                        </g>
                        <g id="Icono" transform="translate(265.612998, 457.731350)">
                            <path d="M17.4981781,52.6270355 C10.2685437,52.6270355 4.40563387,50.7982922 4.40563387,48.5437267 C4.40563387,46.2891612 10.2685437,44.4628304 17.4981781,44.4628304 C24.7290197,44.4628304 30.5919296,46.2891612 30.5919296,48.5437267 C30.5919296,50.7982922 24.7290197,52.6270355 17.4981781,52.6270355" id="Fill-267" fill="#95A9B2"></path>
                            <path d="M34.9963561,17.4840409 C34.9963561,27.1392268 27.1630449,34.9656692 17.4993854,34.9656692 C7.83572591,34.9656692 2.66453526e-14,27.1392268 2.66453526e-14,17.4840409 C2.66453526e-14,7.82885508 7.83572591,-5.32907052e-15 17.4993854,-5.32907052e-15 C27.1630449,-5.32907052e-15 34.9963561,7.82885508 34.9963561,17.4840409" id="Fill-272" fill="#34586C"></path>
                            <polyline id="Fill-273" fill="#34586C" points="17.4993854 48.3700202 3.58463331 28.0511858 31.4117228 28.0511858 17.4993854 48.3700202"></polyline>
                        </g>
                        <g id="Icono" transform="translate(34.510463, 304.465796)">
                            <path d="M20.3861682,61.3871504 C13.1565339,61.3871504 7.29362407,59.5608197 7.29362407,57.3062542 C7.29362407,55.0504824 13.1565339,53.2253579 20.3861682,53.2253579 C25.8168455,53.2253579 30.4748163,54.2543276 32.4584985,55.7223887 L22.617358,61.328042 C21.8917384,61.3678497 21.1468011,61.3871504 20.3861682,61.3871504" id="Fill-261" fill="#95A9B2"></path>
                            <path d="M20.388583,40.7389975 C9.12759443,40.7389975 -3.55271368e-15,31.6182004 -3.55271368e-15,20.3682925 C-3.55271368e-15,9.11959082 9.12759443,2.84217094e-14 20.388583,2.84217094e-14 C31.6483641,2.84217094e-14 40.7759586,9.11959082 40.7759586,20.3682925 C40.7759586,31.6182004 31.6483641,40.7389975 20.388583,40.7389975 Z" id="Fill-287" fill="#34586C"></path>
                            <polyline id="Fill-288" fill="#34586C" points="20.388583 56.353281 4.17623666 32.6797401 36.5997219 32.6797401 20.388583 56.353281"></polyline>
                        </g>
                    </g>
                </g>
                <rect id="Rectangle" fill="url(#linearGradient-1)" x="134" y="0" width="375" height="667"></rect>
            </g>
        </g>
    </g>
</svg>